Futurama Season 1 - 5 
http://www.imdb.com/title/tt0149460/


Source  :

Eztv

Info:

ID                               : 1
Format                           : AVC
Format/Info                      : Advanced Video Codec
Format profile                   : Baseline@L2.1
Format settings, CABAC           : No
Format settings, ReFrames        : 3 frames
Codec ID                         : avc1
Codec ID/Info                    : Advanced Video Coding
Duration                         : 21mn 34s
Bit rate mode                    : Variable
Bit rate                         : 350 Kbps
Width                            : 480 pixels
Height                           : 368 pixels
Display aspect ratio             : 4:3
Frame rate mode                  : Variable
Frame rate                       : 24.941 fps
Minimum frame rate               : 12.500 fps
Maximum frame rate               : 25.000 fps
Color space                      : YUV
Chroma subsampling               : 4:2:0
Bit depth                        : 8 bits
Scan type                        : Progressive
Bits/(Pixel*Frame)               : 0.079
Stream size                      : 54.0 MiB (73%)
Writing library                  : x264 core 79

ID                               : 2
Format                           : AAC
Format/Info                      : Advanced Audio Codec
Format version                   : Version 4
Format profile                   : LC
Format settings, SBR             : No
Codec ID                         : 40
Duration                         : 21mn 34s
Bit rate mode                    : Variable
Bit rate                         : 128 Kbps
Maximum bit rate                 : 204 Kbps
Channel(s)                       : 2 channels
Channel positions                : Front: L R
Sampling rate                    : 48.0 KHz
Stream size                      : 19.7 MiB (27%)


Screens : 
http://img685.imageshack.us/img685/263/futuramas01e01spacepilo.jpg




PLEASE LET THE TORRENT SEED AND SHARE IT WITH ALL YOU KNOW!

Let me know what I can do to be your trusted source of Handheld videos. 
http://thepiratebay.org/user/on.off.on/ -OOO
